<svg width="428" height="145" viewBox="0 0 428 145" fill="none" xmlns="http://www.w3.org/2000/svg">
<rect width="428" height="145" fill="#F5F5F5"/>
<rect width="428" height="145" fill="white"/>
<rect x="35" y="21" width="105" height="102" rx="10" fill="#6952F9"/>
<path d="M108.478 47.6364C111.223 47.6364 113.153 50.338 112.262 52.9345L97.0407 97.2981C96.4861 98.9144 94.966 100 93.2572 100H79.881C78.1713 100 76.6506 98.9134 76.0967 97.2959L60.9045 52.9323C60.0155 50.3363 61.9447 47.6364 64.6887 47.6364H73.577C75.3881 47.6364 76.9732 48.8532 77.4412 50.6027L86.2955 83.7045H86.8409L95.7274 50.5993C96.1966 48.8515 97.7809 47.6364 99.5906 47.6364H108.478Z" fill="white"/>
<path d="M195.596 58.5454C196.968 58.5454 197.933 59.8963 197.487 61.1945L191.285 79.2727L184.637 98.649C184.36 99.4572 183.599 100 182.745 100H170.489C169.634 100 168.874 99.4567 168.597 98.6479L155.77 61.1934C155.326 59.8954 156.291 58.5454 157.663 58.5454H167.227C168.133 58.5454 168.926 59.1539 169.16 60.0286L176.401 87.0994H176.832L184.099 60.0269C184.334 59.153 185.126 58.5454 186.031 58.5454H195.596Z" fill="#6952F9"/>
<path d="M203.457 100V61.5454C203.457 59.8886 204.8 58.5454 206.457 58.5454H216.654V97C216.654 98.6568 215.311 100 213.654 100H203.457ZM210.069 53.7145C208.216 53.7145 206.623 53.1027 205.292 51.8792C203.96 50.6378 203.295 49.1444 203.295 47.3991C203.295 45.6719 203.96 44.1965 205.292 42.973C206.623 41.7315 208.216 41.1108 210.069 41.1108C211.94 41.1108 213.532 41.7315 214.846 42.973C216.177 44.1965 216.843 45.6719 216.843 47.3991C216.843 49.1444 216.177 50.6378 214.846 51.8792C213.532 53.1027 211.94 53.7145 210.069 53.7145Z" fill="#6952F9"/>
<path d="M248.453 58.5454V65.2613C248.453 66.9182 247.11 68.2613 245.453 68.2613H222.301V58.5454H248.453ZM227.78 51.6136C227.78 49.9568 229.123 48.6136 230.78 48.6136H237.978C239.634 48.6136 240.978 49.9568 240.978 51.6136V86.9645C240.978 87.7741 241.104 88.4309 241.355 88.9346C241.625 89.4204 242.012 89.7713 242.516 89.9872C243.02 90.1851 243.623 90.2841 244.324 90.2841C244.828 90.2841 245.359 90.2391 245.917 90.1491C246.492 90.0412 246.924 89.9512 247.212 89.8792L249.209 99.4062C248.579 99.5862 247.689 99.8111 246.537 100.081C245.404 100.351 244.045 100.522 242.462 100.594C239.367 100.738 236.713 100.378 234.5 99.5142C232.305 98.6326 230.623 97.2651 229.453 95.4119C228.302 93.5587 227.744 91.2287 227.78 88.4219V51.6136Z" fill="#6952F9"/>
<path d="M274.12 100.783C269.783 100.783 266.041 99.928 262.892 98.2187C259.762 96.4915 257.351 94.0355 255.659 90.8508C253.986 87.6482 253.149 83.8428 253.149 79.4346C253.149 75.1524 253.995 71.41 255.686 68.2074C257.378 64.9867 259.762 62.4858 262.838 60.7045C265.915 58.9053 269.541 58.0057 273.715 58.0057C276.666 58.0057 279.364 58.4645 281.811 59.3821C284.258 60.2997 286.373 61.6581 288.154 63.4574C289.935 65.2566 291.32 67.4787 292.31 70.1236C293.3 72.7505 293.794 75.7642 293.794 79.1648V82.4574H257.765V74.7926H281.515C281.497 73.3892 281.164 72.1387 280.516 71.0412C279.868 69.9436 278.978 69.089 277.844 68.4773C276.729 67.8475 275.442 67.5327 273.985 67.5327C272.509 67.5327 271.187 67.8655 270.017 68.5312C268.848 69.179 267.921 70.0696 267.238 71.2031C266.554 72.3186 266.194 73.5871 266.158 75.0085V82.8082C266.158 84.4995 266.491 85.9839 267.157 87.2613C267.822 88.5208 268.767 89.5014 269.99 90.2031C271.214 90.9048 272.671 91.2557 274.363 91.2557C275.532 91.2557 276.594 91.0937 277.547 90.7699C278.501 90.446 279.319 89.9692 280.003 89.3395C280.687 88.7097 281.2 87.9361 281.542 87.0185L293.659 87.3693C293.156 90.0862 292.049 92.4522 290.34 94.4673C288.649 96.4645 286.426 98.0208 283.674 99.1363C280.921 100.234 277.736 100.783 274.12 100.783Z" fill="#6952F9"/>
<path d="M302.535 100C301.43 100 300.535 99.1046 300.535 98V60.5454C300.535 59.4409 301.43 58.5454 302.535 58.5454H311.354C312.459 58.5454 313.354 59.4409 313.354 60.5454V66.1023H313.786C314.542 63.3674 315.774 61.3343 317.484 60.0028C319.193 58.6534 321.181 57.9787 323.448 57.9787C324.06 57.9787 324.69 58.0237 325.337 58.1136C325.985 58.1856 326.588 58.3025 327.146 58.4645V69.9346C326.516 69.7187 325.688 69.5478 324.663 69.4219C323.655 69.2959 322.755 69.2329 321.964 69.2329C320.398 69.2329 318.986 69.5838 317.727 70.2855C316.485 70.9692 315.505 71.9318 314.785 73.1733C314.083 74.3968 313.732 75.8362 313.732 77.4915V98C313.732 99.1046 312.837 100 311.732 100H302.535Z" fill="#6952F9"/>
<path d="M334.523 100C333.419 100 332.523 99.1046 332.523 98V46.7273C332.523 45.6227 333.419 44.7273 334.523 44.7273H343.721C344.825 44.7273 345.721 45.6227 345.721 46.7273V65.6434H345.99C346.53 64.384 347.295 63.1695 348.284 62C349.292 60.8305 350.569 59.8769 352.117 59.1392C353.682 58.3835 355.553 58.0057 357.73 58.0057C360.609 58.0057 363.299 58.7613 365.8 60.2727C368.319 61.7841 370.352 64.1141 371.9 67.2628C373.447 70.4114 374.221 74.4238 374.221 79.2997C374.221 83.9957 373.474 87.9271 371.98 91.0937C370.505 94.2604 368.508 96.6354 365.989 98.2187C363.488 99.8021 360.708 100.594 357.65 100.594C355.562 100.594 353.754 100.252 352.225 99.5682C350.695 98.8845 349.409 97.9848 348.365 96.8693C347.34 95.7538 346.548 94.5573 345.99 93.2798H345.586V98C345.586 99.1046 344.69 100 343.586 100H334.523ZM345.451 79.2727C345.451 81.5038 345.748 83.447 346.341 85.1023C346.953 86.7576 347.826 88.044 348.959 88.9616C350.111 89.8613 351.487 90.3111 353.088 90.3111C354.708 90.3111 356.084 89.8613 357.218 88.9616C358.351 88.044 359.206 86.7576 359.782 85.1023C360.375 83.447 360.672 81.5038 360.672 79.2727C360.672 77.0417 360.375 75.1075 359.782 73.4702C359.206 71.8328 358.351 70.5644 357.218 69.6648C356.102 68.7651 354.726 68.3153 353.088 68.3153C351.469 68.3153 350.093 68.7561 348.959 69.6378C347.826 70.5194 346.953 71.7789 346.341 73.4162C345.748 75.0535 345.451 77.0057 345.451 79.2727Z" fill="#6952F9"/>
<path d="M383.136 100C382.032 100 381.136 99.1046 381.136 98V58.5454H392.334C393.438 58.5454 394.334 59.4409 394.334 60.5454V100H383.136ZM387.749 53.7145C385.895 53.7145 384.303 53.1027 382.972 51.8792C381.64 50.6378 380.974 49.1444 380.974 47.3991C380.974 45.6719 381.64 44.1965 382.972 42.973C384.303 41.7315 385.895 41.1108 387.749 41.1108C389.62 41.1108 391.212 41.7315 392.526 42.973C393.857 44.1965 394.523 45.6719 394.523 47.3991C394.523 49.1444 393.857 50.6378 392.526 51.8792C391.212 53.1027 389.62 53.7145 387.749 53.7145Z" fill="#6952F9"/>
</svg>
