<svg width="127" height="129" viewBox="0 0 127 129" fill="none" xmlns="http://www.w3.org/2000/svg">
<rect width="127" height="129" fill="#F5F5F5"/>
<rect width="127" height="129" fill="white"/>
<rect x="11" y="14" width="105" height="102" rx="10" fill="#6952F9"/>
<path d="M84.4783 40.6364C87.2233 40.6364 89.1526 43.338 88.2618 45.9345L73.0407 90.2981C72.4861 91.9144 70.966 93 69.2572 93H55.881C54.1713 93 52.6506 91.9134 52.0967 90.2959L36.9045 45.9323C36.0155 43.3363 37.9447 40.6364 40.6887 40.6364H49.577C51.3881 40.6364 52.9732 41.8532 53.4412 43.6027L62.2955 76.7045H62.8409L71.7274 43.5993C72.1966 41.8515 73.7809 40.6364 75.5906 40.6364H84.4783Z" fill="white"/>
</svg>
